# Blender v3.1.2 OBJ File: ''
# www.blender.org
mtllib new19.mtl
o Plane
v -1.562616 -0.397570 -0.176485
v 1.751753 -0.395231 -0.178278
v 1.758587 0.394104 -3.131046
v -1.564376 0.395231 -3.128325
v 1.758587 -0.474543 -0.197110
v 1.751753 -0.395231 -0.178278
v -1.562616 -0.397570 -0.176485
v -1.562616 -0.474543 -0.197110
v -1.564376 0.395231 -3.128325
v -1.562616 0.317130 -3.151671
v 1.758587 0.317130 -3.151671
v 1.758587 0.394104 -3.131046
vt 0.000000 0.000000
vt 1.000000 0.000000
vt 1.000000 1.000000
vt 0.000000 1.000000
vt 0.375000 0.750000
vt 0.625000 0.750000
vt 0.625000 1.000000
vt 0.375000 1.000000
vt 0.375000 0.000000
vt 0.625000 0.000000
vt 0.625000 0.250000
vt 0.375000 0.250000
vt 0.125000 0.500000
vt 0.375000 0.500000
vt 0.125000 0.750000
vt 0.625000 0.500000
vn -0.0000 0.9659 0.2588
vn 0.0003 -0.2448 0.9696
vn -0.9999 -0.0106 -0.0026
vn 0.0000 -0.9659 -0.2588
vn 0.9991 0.0407 0.0120
vn -0.0003 0.2728 -0.9621
usemtl Material.001
s 1
f 1/1/1 2/2/1 3/3/1 4/4/1
usemtl Material.002
f 5/5/2 6/6/2 7/7/2 8/8/2
f 8/9/3 7/10/3 9/11/3 10/12/3
f 10/13/4 11/14/4 5/5/4 8/15/4
f 11/14/5 12/16/5 6/6/5 5/5/5
f 10/12/6 9/11/6 12/16/6 11/14/6
