# Blender v3.1.2 OBJ File: ''
# www.blender.org
mtllib new14.mtl
o Plane
v -1.684819 -0.177148 0.927729
v 0.337449 -0.175675 0.926417
v 0.341619 0.174740 -1.067923
v -1.685893 0.175675 -1.066186
v 0.341619 -0.230629 0.918299
v 0.337449 -0.175675 0.926417
v -1.684819 -0.177148 0.927729
v -1.684819 -0.230629 0.918299
v -1.685893 0.175675 -1.066186
v -1.684819 0.121258 -1.077353
v 0.341619 0.121258 -1.077353
v 0.341619 0.174740 -1.067923
vt 0.000000 0.000000
vt 1.000000 0.000000
vt 1.000000 1.000000
vt 0.000000 1.000000
vt 0.375000 0.750000
vt 0.625000 0.750000
vt 0.625000 1.000000
vt 0.375000 1.000000
vt 0.375000 0.000000
vt 0.625000 0.000000
vt 0.625000 0.250000
vt 0.375000 0.250000
vt 0.125000 0.500000
vt 0.375000 0.500000
vt 0.125000 0.750000
vt 0.625000 0.500000
vn -0.0000 0.9848 0.1736
vn 0.0004 -0.1597 0.9872
vn -1.0000 -0.0097 -0.0014
vn 0.0000 -0.9848 -0.1736
vn 0.9993 0.0372 0.0076
vn -0.0004 0.1875 -0.9823
usemtl Material.001
s 1
f 1/1/1 2/2/1 3/3/1 4/4/1
usemtl Material.002
f 5/5/2 6/6/2 7/7/2 8/8/2
f 8/9/3 7/10/3 9/11/3 10/12/3
f 10/13/4 11/14/4 5/5/4 8/15/4
f 11/14/5 12/16/5 6/6/5 5/5/5
f 10/12/6 9/11/6 12/16/6 11/14/6
