# Blender v3.1.2 OBJ File: ''
# www.blender.org
mtllib new26.mtl
o Plane
v -4.564779 1.550109 -1.500734
v 5.117294 1.555351 -1.507558
v 5.137258 1.550115 -10.436190
v -4.569921 1.555354 -10.429365
v 5.137258 1.317320 -1.500733
v 5.117294 1.555351 -1.507558
v -4.564779 1.550109 -1.500734
v -4.564779 1.317320 -1.500733
v -4.569921 1.555354 -10.429365
v -4.564779 1.317323 -10.436190
v 5.137258 1.317323 -10.436190
v 5.137258 1.550115 -10.436190
vt 0.000000 0.000000
vt 1.000000 0.000000
vt 1.000000 1.000000
vt 0.000000 1.000000
vt 0.375000 0.750000
vt 0.625000 0.750000
vt 0.625000 1.000000
vt 0.375000 1.000000
vt 0.375000 0.000000
vt 0.625000 0.000000
vt 0.625000 0.250000
vt 0.375000 0.250000
vt 0.125000 0.500000
vt 0.375000 0.500000
vt 0.125000 0.750000
vt 0.625000 0.500000
vn -0.0000 1.0000 0.0000
vn 0.0003 0.0145 0.9999
vn -0.9999 -0.0109 0.0003
vn 0.0000 -1.0000 -0.0000
vn 0.9991 0.0424 0.0011
vn -0.0003 0.0145 -0.9999
usemtl Material.001
s 1
f 1/1/1 2/2/1 3/3/1 4/4/1
usemtl Material.002
f 5/5/2 6/6/2 7/7/2 8/8/2
f 8/9/3 7/10/3 9/11/3 10/12/3
f 10/13/4 11/14/4 5/5/4 8/15/4
f 11/14/5 12/16/5 6/6/5 5/5/5
f 10/12/6 9/11/6 12/16/6 11/14/6
