# Blender v3.1.2 OBJ File: ''
# www.blender.org
mtllib new22.mtl
o Plane
v -1.562616 -0.766251 -1.035601
v 1.751753 -0.763529 -1.036727
v 1.758587 0.763144 -3.684587
v -1.564376 0.763529 -3.681667
v 1.758587 -0.835263 -1.075445
v 1.751753 -0.763529 -1.036727
v -1.562616 -0.766251 -1.035601
v -1.562616 -0.835263 -1.075445
v -1.564376 0.763529 -3.681667
v -1.562616 0.694131 -3.724432
v 1.758587 0.694131 -3.724432
v 1.758587 0.763144 -3.684587
vt 0.000000 0.000000
vt 1.000000 0.000000
vt 1.000000 1.000000
vt 0.000000 1.000000
vt 0.375000 0.750000
vt 0.625000 0.750000
vt 0.625000 1.000000
vt 0.375000 1.000000
vt 0.375000 0.000000
vt 0.625000 0.000000
vt 0.625000 0.250000
vt 0.375000 0.250000
vt 0.125000 0.500000
vt 0.375000 0.500000
vt 0.125000 0.750000
vt 0.625000 0.500000
vn -0.0000 0.8660 0.5000
vn 0.0003 -0.4874 0.8732
vn -0.9999 -0.0096 -0.0052
vn 0.0000 -0.8660 -0.5000
vn 0.9991 0.0362 0.0221
vn -0.0003 0.5125 -0.8587
usemtl Material.001
s 1
f 1/1/1 2/2/1 3/3/1 4/4/1
usemtl Material.002
f 5/5/2 6/6/2 7/7/2 8/8/2
f 8/9/3 7/10/3 9/11/3 10/12/3
f 10/13/4 11/14/4 5/5/4 8/15/4
f 11/14/5 12/16/5 6/6/5 5/5/5
f 10/12/6 9/11/6 12/16/6 11/14/6
