# Blender v3.1.2 OBJ File: ''
# www.blender.org
mtllib newun9.mtl
o Plane
v -1.010597 -0.001223 1.013219
v 1.011671 -0.000000 1.011671
v 1.015841 -0.001222 -1.013219
v -1.011671 0.000000 -1.011671
v 1.015841 -0.055529 1.013219
v 1.011671 -0.000000 1.011671
v -1.010597 -0.001223 1.013219
v -1.010597 -0.055529 1.013219
v -1.011671 0.000000 -1.011671
v -1.010597 -0.055529 -1.013219
v 1.015841 -0.055529 -1.013219
v 1.015841 -0.001222 -1.013219
vt 0.000000 0.000000
vt 1.000000 0.000000
vt 1.000000 1.000000
vt 0.000000 1.000000
vt 0.375000 0.750000
vt 0.625000 0.750000
vt 0.625000 1.000000
vt 0.375000 1.000000
vt 0.375000 0.000000
vt 0.625000 0.000000
vt 0.625000 0.250000
vt 0.375000 0.250000
vt 0.125000 0.500000
vt 0.375000 0.500000
vt 0.125000 0.750000
vt 0.625000 0.500000
vn 0.0000 1.0000 0.0000
vn 0.0004 0.0141 0.9999
vn -1.0000 -0.0098 0.0003
vn 0.0000 -1.0000 -0.0000
vn 0.9993 0.0380 0.0010
vn -0.0004 0.0141 -0.9999
usemtl Material.001
s 1
f 1/1/1 2/2/1 3/3/1 4/4/1
usemtl Material.002
f 5/5/2 6/6/2 7/7/2 8/8/2
f 8/9/3 7/10/3 9/11/3 10/12/3
f 10/13/4 11/14/4 5/5/4 8/15/4
f 11/14/5 12/16/5 6/6/5 5/5/5
f 10/12/6 9/11/6 12/16/6 11/14/6
