# Blender v3.2.0 OBJ File: ''
# www.blender.org
mtllib untitled.mtl
o mesa_oficina_Cube.008
v -7.394723 -8.762261 3.959133
v -8.283795 -8.762261 3.959133
v -8.283795 -8.762261 3.070062
v -7.394723 -8.762261 3.070062
v -8.283795 -8.762260 -3.870450
v -7.394723 -8.762260 -3.870450
v -7.394723 -8.762260 -2.981379
v -8.283795 -8.762260 -2.981379
v 6.385880 -8.762260 -3.870450
v 7.274951 -8.762260 -3.870450
v 7.274951 -8.762260 -2.981378
v 6.385880 -8.762260 -2.981378
v 7.274951 -8.762261 3.959134
v 6.385880 -8.762261 3.959134
v 6.385880 -8.762261 3.070063
v 7.274951 -8.762261 3.070063
v 7.890137 -0.427220 4.513457
v 7.890139 -0.148204 4.513454
v 7.890141 -0.148202 -4.424766
v 7.890140 -0.427218 -4.424767
v -8.898985 -0.148202 -4.424769
v -8.898984 -0.427217 -4.424770
v -8.898985 -0.148204 4.513453
v -8.898989 -0.427218 4.513450
v -7.394724 -1.399687 3.959134
v -8.283795 -1.399687 3.959134
v -8.283794 -1.399686 3.070063
v -7.394723 -1.399686 3.070063
v -7.394724 -1.399685 -2.981378
v -8.283795 -1.399685 -2.981379
v -8.283795 -1.399685 -3.870450
v -7.394723 -1.399685 -3.870449
v 7.274951 -1.399685 -3.870449
v 7.274951 -1.399685 -2.981378
v 6.385880 -1.399685 -3.870449
v 6.385880 -1.399685 -2.981378
v 7.274951 -1.399687 3.959135
v 7.274951 -1.399686 3.070064
v 6.385880 -1.399686 3.070064
v 6.385880 -1.399687 3.959135
v 7.274948 -0.982888 3.959135
v -8.283795 -0.982888 3.959133
v -8.283795 -0.982886 -3.870450
v 7.274951 -0.982886 -3.870449
v 7.274947 -0.427219 3.959138
v -8.283800 -0.427219 3.959131
v -8.283794 -0.427218 -3.870451
v 7.274949 -0.427218 -3.870448
v -7.394724 -1.367080 3.959134
v -7.394724 -0.982888 3.959134
v -8.283795 -1.367080 3.959134
v -8.283794 -0.982887 3.070063
v -8.283794 -1.367080 3.070063
v -7.394724 -0.982887 3.070063
v -7.394723 -1.367080 3.070063
v -7.394724 -1.367079 -2.981378
v -7.394724 -0.982886 -2.981378
v -8.283795 -0.982886 -2.981379
v -8.283795 -1.367079 -2.981379
v -8.283795 -1.367079 -3.870450
v -7.394724 -0.982886 -3.870449
v -7.394723 -1.367079 -3.870449
v 7.274951 -1.367079 -3.870449
v 7.274951 -0.982886 -2.981377
v 7.274951 -1.367079 -2.981378
v 6.385880 -1.367079 -3.870449
v 6.385880 -0.982886 -3.870449
v 6.385880 -1.367079 -2.981378
v 6.385880 -0.982886 -2.981378
v 7.274949 -1.367080 3.959135
v 7.274951 -1.367080 3.070064
v 7.274951 -0.982887 3.070064
v 6.385880 -1.367080 3.070064
v 6.385880 -0.982887 3.070064
v 6.385880 -1.367080 3.959135
v 6.385880 -0.982888 3.959134
v 6.434974 -1.367080 3.910040
v 7.225855 -1.367082 3.910040
v 6.434975 -1.367080 3.119159
v 7.225857 -1.367082 3.119159
v 6.434974 -1.367079 -3.030473
v 7.225856 -1.367080 -3.030472
v 6.434975 -1.367079 -3.821354
v 7.225857 -1.367080 -3.821354
v -7.443819 -1.367080 -3.030473
v -7.443818 -1.367080 -3.821354
v -8.234701 -1.367079 -3.821355
v -8.234701 -1.367079 -3.030473
v -7.443819 -1.367081 3.910039
v -7.443818 -1.367081 3.119158
v -8.234701 -1.367080 3.119158
v -8.234701 -1.367080 3.910039
v 7.225856 -1.399688 3.910040
v 6.434974 -1.399687 3.910040
v 6.434975 -1.399686 3.119159
v 7.225857 -1.399688 3.119159
v 7.225856 -1.399686 -3.030472
v 6.434974 -1.399685 -3.030473
v 6.434975 -1.399685 -3.821354
v 7.225857 -1.399686 -3.821354
v -7.443818 -1.399686 -3.821354
v -7.443818 -1.399686 -3.030473
v -8.234701 -1.399685 -3.821355
v -8.234701 -1.399685 -3.030473
v -7.443818 -1.399687 3.119158
v -7.443818 -1.399688 3.910039
v -8.234701 -1.399686 3.119158
v -8.234701 -1.399687 3.910039
vt 0.401222 0.364318
vt 0.348292 0.364318
vt 0.348292 0.436390
vt 0.401222 0.436390
vt 0.404932 0.436140
vt 0.457862 0.436140
vt 0.457862 0.364068
vt 0.404932 0.364068
vt 0.287892 0.437051
vt 0.340822 0.437051
vt 0.340822 0.364980
vt 0.287892 0.364980
vt 0.280770 0.362873
vt 0.227840 0.362873
vt 0.227840 0.434944
vt 0.280770 0.434944
vt 0.465126 0.385145
vt 0.465126 0.407763
vt 0.997254 0.407763
vt 0.997254 0.385145
vt 0.000076 0.825168
vt 0.000076 0.802550
vt 0.999599 0.802549
vt 0.999599 0.825168
vt 0.463835 0.437428
vt 0.463835 0.414810
vt 0.995962 0.414810
vt 0.995962 0.437428
vt 0.999972 0.850060
vt 0.999972 0.827442
vt 0.000449 0.827442
vt 0.000449 0.850060
vt 0.999972 0.234373
vt 0.999972 0.958938
vt 0.000449 0.958938
vt 0.000449 0.234373
vt 0.999972 0.234373
vt 0.000449 0.234373
vt 0.000449 0.958938
vt 0.999972 0.958938
vt 0.355441 0.548645
vt 0.803069 0.548645
vt 0.803069 0.619219
vt 0.355441 0.619219
vt 0.355441 0.697923
vt 0.803069 0.697923
vt 0.803069 0.627349
vt 0.355441 0.627349
vt 0.355441 0.619219
vt 0.803069 0.619218
vt 0.803069 0.548645
vt 0.355441 0.548645
vt 0.803069 0.697923
vt 0.355441 0.697923
vt 0.355441 0.627349
vt 0.803069 0.627349
vt 0.355441 0.548645
vt 0.803069 0.548645
vt 0.803069 0.619219
vt 0.355441 0.619219
vt 0.492594 0.325047
vt 0.940222 0.325047
vt 0.940222 0.254474
vt 0.492594 0.254474
vt 0.355441 0.619219
vt 0.803069 0.619219
vt 0.803069 0.548645
vt 0.355441 0.548645
vt 0.492594 0.254474
vt 0.940222 0.254474
vt 0.940222 0.325047
vt 0.492594 0.325047
vt 0.492594 0.254474
vt 0.940222 0.254474
vt 0.940222 0.325047
vt 0.492594 0.325047
vt 0.492594 0.384291
vt 0.940222 0.384291
vt 0.940222 0.313718
vt 0.492594 0.313718
vt 0.492594 0.325047
vt 0.940222 0.325047
vt 0.940222 0.254474
vt 0.492594 0.254474
vt 0.492594 0.313718
vt 0.940222 0.313718
vt 0.940222 0.384291
vt 0.492594 0.384291
vt 0.803069 0.697923
vt 0.355441 0.697923
vt 0.355441 0.627349
vt 0.803069 0.627349
vt 0.492594 0.384291
vt 0.940222 0.384291
vt 0.940222 0.313718
vt 0.492594 0.313718
vt 0.355441 0.697923
vt 0.803069 0.697923
vt 0.803069 0.627349
vt 0.355441 0.627349
vt 0.492594 0.313718
vt 0.940222 0.313718
vt 0.940222 0.384291
vt 0.492594 0.384291
vt 0.000000 1.000000
vt 0.000000 0.000000
vt 1.000000 0.000000
vt 1.000000 1.000000
vt 0.000000 0.000000
vt 1.000000 0.000000
vt 1.000000 1.000000
vt 0.000000 1.000000
vt 0.000000 0.000000
vt 1.000000 0.000000
vt 1.000000 1.000000
vt 0.000000 1.000000
vt 0.000000 0.000000
vt 1.000000 0.000000
vt 0.000000 1.000000
vt 0.000000 0.000000
vt 1.000000 0.000000
vt 1.000000 1.000000
vt 0.000000 1.000000
vt 0.000000 0.000000
vt 1.000000 0.000000
vt 1.000000 1.000000
vt 0.000000 1.000000
vt 1.000000 0.000000
vt 1.000000 1.000000
vt 0.000000 1.000000
vt 0.000000 0.000000
vt 1.000000 0.000000
vt 1.000000 1.000000
vt 0.000000 1.000000
vt 0.000000 0.000000
vt 1.000000 0.000000
vt 1.000000 1.000000
vt 0.000000 1.000000
vt 0.000000 0.000000
vt 1.000000 0.000000
vt 1.000000 1.000000
vt 0.000000 1.000000
vt 0.000000 0.000000
vt 1.000000 1.000000
vt 0.000000 1.000000
vt 0.000000 0.000000
vt 1.000000 0.000000
vt 1.000000 1.000000
vt 0.000000 1.000000
vt 0.000000 0.000000
vt 1.000000 0.000000
vt 1.000000 1.000000
vt 0.000000 1.000000
vt 0.000000 0.000000
vt 1.000000 0.000000
vt 1.000000 1.000000
vt 0.000000 1.000000
vt 0.000000 0.000000
vt 1.000000 1.000000
vt 0.000000 1.000000
vt 0.000000 0.000000
vt 1.000000 0.000000
vt 1.000000 1.000000
vt 0.000000 1.000000
vt 0.000000 0.000000
vt 1.000000 0.000000
vt 1.000000 1.000000
vt 0.000000 0.000000
vt 1.000000 0.000000
vt 1.000000 1.000000
vt 0.000000 1.000000
vt 0.000000 0.000000
vt 1.000000 0.000000
vt 1.000000 1.000000
vt 0.000000 1.000000
vt 0.000000 0.000000
vt 1.000000 0.000000
vt 1.000000 1.000000
vt 0.000000 1.000000
vt 1.000000 0.000000
vt 1.000000 1.000000
vt 0.000000 0.000000
vt 1.000000 0.000000
vt 1.000000 1.000000
vt 0.000000 0.000000
vt 1.000000 0.000000
vt 1.000000 1.000000
vt 0.000000 0.000000
vt 1.000000 0.000000
vt 1.000000 1.000000
vt 0.000000 1.000000
vt 1.000000 0.000000
vt 1.000000 1.000000
vt 0.000000 0.000000
vt 1.000000 0.000000
vt 1.000000 1.000000
vt 0.000000 0.000000
vt 1.000000 0.000000
vt 1.000000 1.000000
vt 0.000000 0.000000
vt 1.000000 0.000000
vt 1.000000 1.000000
vt 0.000000 0.000000
vt 1.000000 0.000000
vt 1.000000 1.000000
vt 0.000000 0.000000
vt 1.000000 0.000000
vt 1.000000 1.000000
vt 0.000000 0.000000
vt 1.000000 0.000000
vt 1.000000 1.000000
vt 0.000000 0.000000
vt 1.000000 0.000000
vt 1.000000 1.000000
vt 0.000000 0.000000
vt 1.000000 0.000000
vt 1.000000 1.000000
vt 0.000000 1.000000
vt 1.000000 0.000000
vt 1.000000 1.000000
vt 0.000000 0.000000
vt 1.000000 0.000000
vt 1.000000 1.000000
vt 0.000000 0.000000
vt 1.000000 0.000000
vt 1.000000 1.000000
vt 0.000000 0.000000
vt 1.000000 0.000000
vt 1.000000 1.000000
vt 0.000000 1.000000
vt 0.000000 0.000000
vt 1.000000 0.000000
vt 1.000000 1.000000
vt 0.000000 1.000000
vt 0.000000 0.000000
vt 1.000000 0.000000
vt 1.000000 1.000000
vt 0.000000 1.000000
vt 0.000000 0.000000
vt 1.000000 0.000000
vt 1.000000 1.000000
vt 0.000000 1.000000
vt 0.000000 0.000000
vt 1.000000 0.000000
vt 1.000000 1.000000
vt 0.000000 1.000000
vt 0.000000 0.000000
vt 1.000000 0.000000
vt 1.000000 1.000000
vt 0.000000 1.000000
vt 0.000000 0.000000
vt 1.000000 0.000000
vt 1.000000 1.000000
vt 0.000000 1.000000
vt 0.000000 0.000000
vt 1.000000 0.000000
vt 1.000000 1.000000
vt 0.000000 1.000000
vt 0.000000 0.000000
vt 1.000000 0.000000
vt 1.000000 1.000000
vt 0.000000 1.000000
vt 0.000000 0.000000
vt 1.000000 0.000000
vt 1.000000 1.000000
vt 0.000000 1.000000
vt 0.000000 0.000000
vt 1.000000 0.000000
vt 1.000000 1.000000
vt 0.000000 1.000000
vt 0.000000 0.000000
vt 1.000000 0.000000
vt 1.000000 1.000000
vt 0.000000 1.000000
vt 0.000000 0.000000
vt 1.000000 0.000000
vt 1.000000 1.000000
vt 0.000000 1.000000
vt 0.000000 0.000000
vt 1.000000 0.000000
vt 1.000000 1.000000
vt 0.000000 1.000000
vt 0.000000 0.000000
vt 1.000000 0.000000
vt 1.000000 1.000000
vt 0.000000 1.000000
vt 0.000000 0.000000
vt 1.000000 0.000000
vt 1.000000 1.000000
vt 0.000000 1.000000
vt 0.000000 0.000000
vt 1.000000 0.000000
vt 1.000000 1.000000
vt 0.000000 1.000000
vt 0.000000 0.000000
vt 0.000000 1.000000
vt 0.000000 0.000000
vt 0.000000 1.000000
vt 0.000000 0.000000
vt 0.000000 1.000000
vt 0.000000 0.000000
vt 0.000000 1.000000
vt 0.000000 0.000000
vt 0.000000 1.000000
vt 0.000000 0.000000
vt 0.000000 1.000000
vt 0.000000 0.000000
vt 0.000000 1.000000
vt 0.000000 0.000000
vt 0.000000 1.000000
vt 0.000000 0.000000
vt 0.000000 1.000000
vt 0.000000 0.000000
vt 0.000000 1.000000
vt 0.000000 0.000000
vt 0.000000 1.000000
vt 0.000000 0.000000
vt 0.000000 1.000000
vt 0.000000 0.000000
vt 0.000000 1.000000
vt 0.000000 0.000000
vt 0.000000 1.000000
vt 0.000000 0.000000
vt 0.000000 1.000000
vt 0.000000 0.000000
vn 0.0000 -1.0000 0.0000
vn -1.0000 0.0000 -0.0000
vn -0.0000 -0.0000 1.0000
vn 1.0000 -0.0000 0.0000
vn 0.0000 0.0000 -1.0000
vn 0.0000 1.0000 0.0000
usemtl woodred_woodred.jpg
s 1
f 1/1/1 2/2/1 3/3/1 4/4/1
f 5/5/1 6/6/1 7/7/1 8/8/1
f 9/9/1 10/10/1 11/11/1 12/12/1
f 13/13/1 14/14/1 15/15/1 16/16/1
f 17/17/2 18/18/2 19/19/2 20/20/2
f 21/21/3 22/22/3 20/23/3 19/24/3
f 23/25/4 24/26/4 22/27/4 21/28/4
f 18/29/5 17/30/5 24/31/5 23/32/5
f 17/33/6 20/34/6 22/35/6 24/36/6
f 18/37/1 23/38/1 21/39/1 19/40/1
f 1/41/3 25/42/3 26/43/3 2/44/3
f 2/45/2 26/46/2 27/47/2 3/48/2
f 3/49/5 27/50/5 28/51/5 4/52/5
f 25/53/4 1/54/4 4/55/4 28/56/4
f 7/57/3 29/58/3 30/59/3 8/60/3
f 8/61/2 30/62/2 31/63/2 5/64/2
f 5/65/5 31/66/5 32/67/5 6/68/5
f 6/69/4 32/70/4 29/71/4 7/72/4
f 10/73/4 33/74/4 34/75/4 11/76/4
f 9/77/5 35/78/5 33/79/5 10/80/5
f 12/81/2 36/82/2 35/83/2 9/84/2
f 11/85/3 34/86/3 36/87/3 12/88/3
f 37/89/4 13/90/4 16/91/4 38/92/4
f 15/93/5 39/94/5 38/95/5 16/96/5
f 14/97/2 40/98/2 39/99/2 15/100/2
f 13/101/3 37/102/3 40/103/3 14/104/3
usemtl alumain
f 41/105/1 42/106/1 43/107/1 44/108/1
f 41/105/3 45/109/3 46/110/3 42/111/3
f 42/112/2 46/113/2 47/114/2 43/115/2
f 43/116/5 47/117/5 48/118/5 44/108/5
f 45/119/4 41/120/4 44/121/4 48/122/4
f 49/123/3 50/124/3 42/125/3 51/126/3
f 51/127/2 42/106/2 52/128/2 53/129/2
f 53/130/5 52/131/5 54/132/5 55/133/5
f 50/134/4 49/135/4 55/136/4 54/137/4
f 56/138/3 57/139/3 58/140/3 59/141/3
f 59/142/2 58/143/2 43/107/2 60/144/2
f 60/145/5 43/146/5 61/147/5 62/148/5
f 62/149/4 61/150/4 57/151/4 56/152/4
f 63/153/4 44/154/4 64/155/4 65/156/4
f 66/157/5 67/158/5 44/121/5 63/159/5
f 68/160/2 69/161/2 67/162/2 66/163/2
f 65/164/3 64/165/3 69/166/3 68/167/3
f 41/105/4 70/168/4 71/169/4 72/170/4
f 73/171/5 74/172/5 72/173/5 71/174/5
f 75/175/2 76/176/2 74/177/2 73/178/2
f 70/179/3 41/120/3 76/180/3 75/181/3
f 70/179/1 75/182/1 77/183/1 78/184/1
f 75/175/1 73/185/1 79/186/1 77/187/1
f 73/171/1 71/188/1 80/189/1 79/190/1
f 71/191/1 70/168/1 78/192/1 80/193/1
f 65/164/1 68/194/1 81/195/1 82/196/1
f 68/160/1 66/197/1 83/198/1 81/199/1
f 66/157/1 63/200/1 84/201/1 83/202/1
f 63/153/1 65/203/1 82/204/1 84/205/1
f 62/149/1 56/206/1 85/207/1 86/208/1
f 60/145/1 62/209/1 86/210/1 87/211/1
f 59/142/1 60/212/1 87/213/1 88/214/1
f 56/138/1 59/215/1 88/216/1 85/217/1
f 55/218/1 49/135/1 89/219/1 90/220/1
f 53/130/1 55/221/1 90/222/1 91/223/1
f 51/127/1 53/224/1 91/225/1 92/226/1
f 49/123/1 51/227/1 92/228/1 89/229/1
f 40/230/6 37/231/6 93/232/6 94/233/6
f 39/234/6 40/235/6 94/236/6 95/237/6
f 38/238/6 39/239/6 95/240/6 96/241/6
f 37/242/6 38/243/6 96/244/6 93/245/6
f 36/246/6 34/247/6 97/248/6 98/249/6
f 35/250/6 36/251/6 98/252/6 99/253/6
f 33/254/6 35/255/6 99/256/6 100/257/6
f 34/258/6 33/259/6 100/260/6 97/261/6
f 29/262/6 32/263/6 101/264/6 102/265/6
f 32/266/6 31/267/6 103/268/6 101/269/6
f 31/270/6 30/271/6 104/272/6 103/273/6
f 30/274/6 29/275/6 102/276/6 104/277/6
f 25/278/6 28/279/6 105/280/6 106/281/6
f 28/282/6 27/283/6 107/284/6 105/285/6
f 27/286/6 26/287/6 108/288/6 107/289/6
f 26/290/6 25/291/6 106/292/6 108/293/6
f 106/294/3 89/295/3 92/228/3 108/293/3
f 108/296/2 92/297/2 91/225/2 107/289/2
f 107/298/5 91/299/5 90/222/5 105/285/5
f 89/300/4 106/301/4 105/280/4 90/220/4
f 102/302/3 85/303/3 88/216/3 104/277/3
f 104/304/2 88/305/2 87/213/2 103/273/2
f 103/306/5 87/307/5 86/210/5 101/269/5
f 101/308/4 86/309/4 85/207/4 102/265/4
f 100/310/4 84/311/4 82/204/4 97/261/4
f 99/312/5 83/313/5 84/201/5 100/257/5
f 98/314/2 81/315/2 83/198/2 99/253/2
f 97/316/3 82/317/3 81/195/3 98/249/3
f 78/318/4 93/319/4 96/244/4 80/193/4
f 95/320/5 79/321/5 80/189/5 96/241/5
f 94/322/2 77/323/2 79/186/2 95/237/2
f 93/324/3 78/325/3 77/183/3 94/233/3
