# Blender v3.1.2 OBJ File: ''
# www.blender.org
mtllib new31.mtl
o Plane.001
v -4.564779 0.160261 0.257369
v 5.117294 0.166608 0.251559
v 5.137258 1.711894 -8.542336
v -4.569921 1.715868 -8.534705
v 5.137258 -0.068991 0.216946
v 5.117294 0.166608 0.251559
v -4.564779 0.160261 0.257369
v -4.564779 -0.068991 0.216946
v -4.569921 1.715868 -8.534705
v -4.564779 1.482638 -8.582760
v 5.137258 1.482638 -8.582760
v 5.137258 1.711894 -8.542336
vt 0.000000 0.000000
vt 1.000000 0.000000
vt 1.000000 1.000000
vt 0.000000 1.000000
vt 0.375000 0.750000
vt 0.625000 0.750000
vt 0.625000 1.000000
vt 0.375000 1.000000
vt 0.375000 0.000000
vt 0.625000 0.000000
vt 0.625000 0.250000
vt 0.375000 0.250000
vt 0.125000 0.500000
vt 0.375000 0.500000
vt 0.125000 0.750000
vt 0.625000 0.500000
vn -0.0000 0.9848 0.1736
vn 0.0003 -0.1593 0.9872
vn -0.9999 -0.0108 -0.0016
vn 0.0000 -0.9848 -0.1736
vn 0.9991 0.0415 0.0084
vn -0.0003 0.1879 -0.9822
usemtl Material.003
s 1
f 1/1/1 2/2/1 3/3/1 4/4/1
usemtl Material.004
f 5/5/2 6/6/2 7/7/2 8/8/2
f 8/9/3 7/10/3 9/11/3 10/12/3
f 10/13/4 11/14/4 5/5/4 8/15/4
f 11/14/5 12/16/5 6/6/5 5/5/5
f 10/12/6 9/11/6 12/16/6 11/14/6
