# Blender v3.1.2 OBJ File: ''
# www.blender.org
mtllib untitled.mtl
o Plane
v -3.529817 -0.007044 3.538976
v 3.533570 0.000000 3.533570
v -3.533570 0.000000 -3.533570
v 3.548134 -0.007044 -3.538976
v 3.548134 -0.007044 -3.538975
v 3.548134 -0.319970 -3.538975
v 3.533570 0.000000 3.533570
v 3.548134 -0.319970 3.538975
v -3.533570 0.000000 -3.533570
v -3.529817 -0.319970 -3.538975
v -3.529817 -0.007044 3.538975
v -3.529817 -0.319970 3.538975
vt 0.000000 0.000000
vt 1.000000 0.000000
vt 1.000000 1.000000
vt 0.000000 1.000000
vt 0.375000 0.750000
vt 0.625000 0.750000
vt 0.625000 1.000000
vt 0.375000 1.000000
vt 0.375000 0.000000
vt 0.625000 0.000000
vt 0.625000 0.250000
vt 0.375000 0.250000
vt 0.125000 0.500000
vt 0.375000 0.500000
vt 0.125000 0.750000
vt 0.625000 0.500000
vn 0.0000 1.0000 0.0000
vn 0.0004 0.0085 1.0000
vn -1.0000 -0.0059 0.0003
vn 0.0000 -1.0000 0.0000
vn 0.9997 0.0230 0.0010
vn -0.0004 0.0085 -1.0000
usemtl Material.001
s off
f 1/1/1 2/2/1 4/3/1 3/4/1
usemtl Material
f 8/5/2 7/6/2 11/7/2 12/8/2
f 12/9/3 11/10/3 9/11/3 10/12/3
f 10/13/4 6/14/4 8/5/4 12/15/4
f 6/14/5 5/16/5 7/6/5 8/5/5
f 10/12/6 9/11/6 5/16/6 6/14/6
